<mxfile host="app.diagrams.net" modified="2023-09-22T01:55:55.054Z" agent="Mozilla/5.0 (Windows NT 10.0; Win64; x64) AppleWebKit/537.36 (KHTML, like Gecko) Chrome/116.0.0.0 Safari/537.36" etag="uDABFN7KgXiB0d-Bc20d" version="21.7.5" type="github">
  <diagram name="Trang-1" id="kotVkLB_PCtskLAsmDtC">
    <mxGraphModel dx="1050" dy="542" grid="0" gridSize="10" guides="1" tooltips="1" connect="1" arrows="1" fold="1" page="1" pageScale="1" pageWidth="1169" pageHeight="1654" math="0" shadow="0">
      <root>
        <mxCell id="0" />
        <mxCell id="1" parent="0" />
        <mxCell id="nLERhlLYF1LIWVESomSa-8" value="" style="rounded=0;whiteSpace=wrap;html=1;" vertex="1" parent="1">
          <mxGeometry x="420" y="55" width="491" height="385" as="geometry" />
        </mxCell>
        <mxCell id="nLERhlLYF1LIWVESomSa-9" value="" style="rounded=1;whiteSpace=wrap;html=1;" vertex="1" parent="1">
          <mxGeometry x="444" y="101" width="273" height="303" as="geometry" />
        </mxCell>
        <mxCell id="nLERhlLYF1LIWVESomSa-10" value="Cluster 2" style="rounded=1;whiteSpace=wrap;html=1;" vertex="1" parent="1">
          <mxGeometry x="735" y="99" width="75" height="303" as="geometry" />
        </mxCell>
        <mxCell id="nLERhlLYF1LIWVESomSa-11" value="Cluster N" style="rounded=1;whiteSpace=wrap;html=1;" vertex="1" parent="1">
          <mxGeometry x="830" y="96" width="69" height="303" as="geometry" />
        </mxCell>
        <mxCell id="nLERhlLYF1LIWVESomSa-40" value="" style="edgeStyle=orthogonalEdgeStyle;rounded=0;orthogonalLoop=1;jettySize=auto;html=1;" edge="1" parent="1" source="nLERhlLYF1LIWVESomSa-12" target="nLERhlLYF1LIWVESomSa-13">
          <mxGeometry relative="1" as="geometry" />
        </mxCell>
        <mxCell id="nLERhlLYF1LIWVESomSa-12" value="Endpoint metric operator" style="rounded=1;whiteSpace=wrap;html=1;" vertex="1" parent="1">
          <mxGeometry x="466" y="330" width="103" height="60" as="geometry" />
        </mxCell>
        <mxCell id="nLERhlLYF1LIWVESomSa-13" value="Metric collector" style="rounded=1;whiteSpace=wrap;html=1;" vertex="1" parent="1">
          <mxGeometry x="466" y="214" width="103" height="60" as="geometry" />
        </mxCell>
        <mxCell id="nLERhlLYF1LIWVESomSa-31" value="" style="edgeStyle=orthogonalEdgeStyle;rounded=0;orthogonalLoop=1;jettySize=auto;html=1;" edge="1" parent="1" source="nLERhlLYF1LIWVESomSa-14" target="nLERhlLYF1LIWVESomSa-15">
          <mxGeometry relative="1" as="geometry" />
        </mxCell>
        <mxCell id="nLERhlLYF1LIWVESomSa-14" value="Prometheus" style="rounded=1;whiteSpace=wrap;html=1;fillColor=#d5e8d4;strokeColor=#82b366;" vertex="1" parent="1">
          <mxGeometry x="591" y="214" width="104" height="60" as="geometry" />
        </mxCell>
        <mxCell id="nLERhlLYF1LIWVESomSa-15" value="Exporters" style="rounded=1;whiteSpace=wrap;html=1;fillColor=#d5e8d4;strokeColor=#82b366;" vertex="1" parent="1">
          <mxGeometry x="591" y="117" width="103" height="60" as="geometry" />
        </mxCell>
        <mxCell id="nLERhlLYF1LIWVESomSa-16" value="" style="rounded=0;whiteSpace=wrap;html=1;" vertex="1" parent="1">
          <mxGeometry x="29" y="55" width="254" height="385" as="geometry" />
        </mxCell>
        <mxCell id="nLERhlLYF1LIWVESomSa-24" style="edgeStyle=orthogonalEdgeStyle;rounded=0;orthogonalLoop=1;jettySize=auto;html=1;entryX=0;entryY=0.5;entryDx=0;entryDy=0;" edge="1" parent="1" source="nLERhlLYF1LIWVESomSa-17" target="nLERhlLYF1LIWVESomSa-18">
          <mxGeometry relative="1" as="geometry" />
        </mxCell>
        <mxCell id="nLERhlLYF1LIWVESomSa-17" value="Grafana" style="rounded=1;whiteSpace=wrap;html=1;" vertex="1" parent="1">
          <mxGeometry x="61" y="101" width="120" height="60" as="geometry" />
        </mxCell>
        <mxCell id="nLERhlLYF1LIWVESomSa-36" style="edgeStyle=orthogonalEdgeStyle;rounded=0;orthogonalLoop=1;jettySize=auto;html=1;entryX=0;entryY=0.5;entryDx=0;entryDy=0;" edge="1" parent="1" source="nLERhlLYF1LIWVESomSa-18" target="nLERhlLYF1LIWVESomSa-13">
          <mxGeometry relative="1" as="geometry">
            <Array as="points">
              <mxPoint x="402" y="131" />
              <mxPoint x="402" y="244" />
            </Array>
          </mxGeometry>
        </mxCell>
        <mxCell id="nLERhlLYF1LIWVESomSa-18" value="Multicluster hub operator" style="rounded=1;whiteSpace=wrap;html=1;fillColor=#cce5ff;strokeColor=#36393d;" vertex="1" parent="1">
          <mxGeometry x="226" y="101" width="120" height="60" as="geometry" />
        </mxCell>
        <mxCell id="nLERhlLYF1LIWVESomSa-19" value="Search/GraphDB" style="rounded=0;whiteSpace=wrap;html=1;fillColor=#eeeeee;strokeColor=#36393d;" vertex="1" parent="1">
          <mxGeometry x="61" y="170" width="120" height="60" as="geometry" />
        </mxCell>
        <mxCell id="nLERhlLYF1LIWVESomSa-25" style="edgeStyle=orthogonalEdgeStyle;rounded=0;orthogonalLoop=1;jettySize=auto;html=1;entryX=0.5;entryY=0;entryDx=0;entryDy=0;" edge="1" parent="1" source="nLERhlLYF1LIWVESomSa-20" target="nLERhlLYF1LIWVESomSa-21">
          <mxGeometry relative="1" as="geometry" />
        </mxCell>
        <mxCell id="nLERhlLYF1LIWVESomSa-20" value="Object storage" style="rounded=0;whiteSpace=wrap;html=1;fillColor=#eeeeee;strokeColor=#36393d;" vertex="1" parent="1">
          <mxGeometry x="61" y="241" width="120" height="60" as="geometry" />
        </mxCell>
        <mxCell id="nLERhlLYF1LIWVESomSa-26" style="edgeStyle=orthogonalEdgeStyle;rounded=0;orthogonalLoop=1;jettySize=auto;html=1;entryX=0.5;entryY=0;entryDx=0;entryDy=0;" edge="1" parent="1" source="nLERhlLYF1LIWVESomSa-21" target="nLERhlLYF1LIWVESomSa-22">
          <mxGeometry relative="1" as="geometry" />
        </mxCell>
        <mxCell id="nLERhlLYF1LIWVESomSa-21" value="AlertManager" style="rounded=1;whiteSpace=wrap;html=1;" vertex="1" parent="1">
          <mxGeometry x="61" y="334" width="120" height="60" as="geometry" />
        </mxCell>
        <mxCell id="nLERhlLYF1LIWVESomSa-22" value="Third-party application" style="rounded=1;whiteSpace=wrap;html=1;fillColor=#f8cecc;strokeColor=#b85450;" vertex="1" parent="1">
          <mxGeometry x="61" y="463" width="120" height="60" as="geometry" />
        </mxCell>
        <mxCell id="nLERhlLYF1LIWVESomSa-23" value="&lt;b&gt;Hub cluster&lt;/b&gt;" style="text;html=1;strokeColor=none;fillColor=none;align=center;verticalAlign=middle;whiteSpace=wrap;rounded=0;" vertex="1" parent="1">
          <mxGeometry x="44" y="61" width="92" height="30" as="geometry" />
        </mxCell>
        <mxCell id="nLERhlLYF1LIWVESomSa-27" value="Observability add-on controller&lt;br&gt;(API server)" style="rounded=1;whiteSpace=wrap;html=1;fillColor=#cce5ff;strokeColor=#36393d;" vertex="1" parent="1">
          <mxGeometry x="213" y="330" width="120" height="60" as="geometry" />
        </mxCell>
        <mxCell id="nLERhlLYF1LIWVESomSa-28" value="Cluster 1" style="text;html=1;strokeColor=none;fillColor=none;align=center;verticalAlign=middle;whiteSpace=wrap;rounded=0;" vertex="1" parent="1">
          <mxGeometry x="463" y="114" width="60" height="30" as="geometry" />
        </mxCell>
        <mxCell id="nLERhlLYF1LIWVESomSa-29" value="&lt;b&gt;Managed cluster&lt;/b&gt;" style="text;html=1;strokeColor=none;fillColor=none;align=center;verticalAlign=middle;whiteSpace=wrap;rounded=0;" vertex="1" parent="1">
          <mxGeometry x="444" y="61" width="115" height="30" as="geometry" />
        </mxCell>
        <mxCell id="nLERhlLYF1LIWVESomSa-32" value="Scrape metrics" style="text;html=1;strokeColor=none;fillColor=none;align=center;verticalAlign=middle;whiteSpace=wrap;rounded=0;" vertex="1" parent="1">
          <mxGeometry x="638" y="181" width="60" height="30" as="geometry" />
        </mxCell>
        <mxCell id="nLERhlLYF1LIWVESomSa-34" value="" style="endArrow=classic;html=1;rounded=0;exitX=0;exitY=0.5;exitDx=0;exitDy=0;" edge="1" parent="1" source="nLERhlLYF1LIWVESomSa-14" target="nLERhlLYF1LIWVESomSa-13">
          <mxGeometry width="50" height="50" relative="1" as="geometry">
            <mxPoint x="583" y="362" as="sourcePoint" />
            <mxPoint x="633" y="312" as="targetPoint" />
          </mxGeometry>
        </mxCell>
        <mxCell id="nLERhlLYF1LIWVESomSa-37" value="Data" style="text;html=1;strokeColor=none;fillColor=none;align=center;verticalAlign=middle;whiteSpace=wrap;rounded=0;" vertex="1" parent="1">
          <mxGeometry x="354" y="175" width="60" height="30" as="geometry" />
        </mxCell>
        <mxCell id="nLERhlLYF1LIWVESomSa-38" value="" style="endArrow=classic;startArrow=classic;html=1;rounded=0;exitX=1;exitY=0.5;exitDx=0;exitDy=0;entryX=0;entryY=0.5;entryDx=0;entryDy=0;" edge="1" parent="1" source="nLERhlLYF1LIWVESomSa-27" target="nLERhlLYF1LIWVESomSa-12">
          <mxGeometry width="50" height="50" relative="1" as="geometry">
            <mxPoint x="385" y="383" as="sourcePoint" />
            <mxPoint x="435" y="333" as="targetPoint" />
          </mxGeometry>
        </mxCell>
        <mxCell id="nLERhlLYF1LIWVESomSa-39" value="Configuration&lt;br&gt;Auto-update" style="text;html=1;strokeColor=none;fillColor=none;align=center;verticalAlign=middle;whiteSpace=wrap;rounded=0;" vertex="1" parent="1">
          <mxGeometry x="350" y="372" width="60" height="30" as="geometry" />
        </mxCell>
        <mxCell id="nLERhlLYF1LIWVESomSa-41" value="Config" style="text;html=1;strokeColor=none;fillColor=none;align=center;verticalAlign=middle;whiteSpace=wrap;rounded=0;" vertex="1" parent="1">
          <mxGeometry x="512" y="287" width="60" height="30" as="geometry" />
        </mxCell>
      </root>
    </mxGraphModel>
  </diagram>
</mxfile>
